<svg xmlns="http://www.w3.org/2000/svg" width="32" height="32" viewBox="0 0 32 32">
  <!-- Fondo con gradiente -->
  <defs>
    <linearGradient id="bgGradient" x1="0%" y1="0%" x2="100%" y2="100%">
      <stop offset="0%" style="stop-color:#667eea;stop-opacity:1" />
      <stop offset="100%" style="stop-color:#764ba2;stop-opacity:1" />
    </linearGradient>
    <linearGradient id="iconGradient" x1="0%" y1="0%" x2="100%" y2="100%">
      <stop offset="0%" style="stop-color:#ffffff;stop-opacity:1" />
      <stop offset="100%" style="stop-color:#f1f5f9;stop-opacity:1" />
    </linearGradient>
  </defs>
  
  <!-- Fondo redondeado -->
  <rect width="32" height="32" rx="6" ry="6" fill="url(#bgGradient)"/>
  
  <!-- Icono de colección (estantería con elementos) -->
  <g fill="url(#iconGradient)">
    <!-- Estantería superior -->
    <rect x="4" y="8" width="24" height="2" rx="1"/>
    <!-- Estantería inferior -->
    <rect x="4" y="22" width="24" height="2" rx="1"/>
    
    <!-- Elementos en estantería superior -->
    <!-- Libro -->
    <rect x="6" y="10" width="3" height="12" rx="0.5" fill="#ff6b6b" opacity="0.9"/>
    <!-- Película -->
    <rect x="10" y="10" width="3" height="12" rx="0.5" fill="#4ecdc4" opacity="0.9"/>
    <!-- Serie -->
    <rect x="14" y="10" width="3" height="12" rx="0.5" fill="#45b7d1" opacity="0.9"/>
    <!-- Juego -->
    <rect x="18" y="10" width="3" height="12" rx="0.5" fill="#96ceb4" opacity="0.9"/>
    <!-- Restaurante -->
    <rect x="22" y="10" width="4" height="12" rx="0.5" fill="#feca57" opacity="0.9"/>
    
    <!-- Detalles decorativos -->
    <circle cx="7.5" cy="16" r="0.5" fill="white" opacity="0.7"/>
    <circle cx="11.5" cy="16" r="0.5" fill="white" opacity="0.7"/>
    <circle cx="15.5" cy="16" r="0.5" fill="white" opacity="0.7"/>
    <circle cx="19.5" cy="16" r="0.5" fill="white" opacity="0.7"/>
    <circle cx="24" cy="16" r="0.5" fill="white" opacity="0.7"/>
  </g>
</svg>